<svg id="Icon_Youtube" data-name="Icon Youtube" xmlns="http://www.w3.org/2000/svg" width="30" height="30"><defs><clipPath id="clip-path"><path id="Rectangle_49" data-name="Rectangle 49" fill="none" d="M0 0h30v30H0z"/></clipPath></defs><path id="Path_46" data-name="Path 46" d="M35.185 38.52l5.26-3.036-5.26-3.036z" transform="translate(-22.212 -20.483)" fill="#fff"/><g id="Group_137" data-name="Group 137"><g id="Group_136" data-name="Group 136" clip-path="url(#clip-path)"><path id="Path_47" data-name="Path 47" d="M15 0a15 15 0 1015 15A15 15 0 0015 0m9.7 19.873a2.535 2.535 0 01-1.79 1.79c-1.578.423-7.909.423-7.909.423s-6.331 0-7.909-.423a2.535 2.535 0 01-1.79-1.79A26.328 26.328 0 014.877 15a26.328 26.328 0 01.423-4.873 2.535 2.535 0 011.79-1.79C8.669 7.914 15 7.914 15 7.914s6.331 0 7.909.423a2.535 2.535 0 011.79 1.79A26.5 26.5 0 0125.123 15a26.328 26.328 0 01-.423 4.873" fill="#fff"/></g></g></svg>