<svg id="Icon_Pinterest" data-name="Icon Pinterest" xmlns="http://www.w3.org/2000/svg" width="30" height="30"><defs><clipPath id="clip-path"><path id="Rectangle_46" data-name="Rectangle 46" fill="none" d="M0 0h30v30H0z"/></clipPath></defs><g id="Group_129" data-name="Group 129" clip-path="url(#clip-path)"><path id="Path_42" data-name="Path 42" d="M15 0a15 15 0 1015 15A15 15 0 0015 0m1.922 20.145a3.092 3.092 0 01-2.635-1.345s-.627 2.486-.76 2.965A11.517 11.517 0 0111.58 25.3a.144.144 0 01-.257-.062 12.094 12.094 0 01.032-4.1l1.388-5.88a4.146 4.146 0 01-.345-1.708c0-1.6.927-2.793 2.081-2.793a1.445 1.445 0 011.455 1.62 23.057 23.057 0 01-.953 3.829 1.67 1.67 0 001.7 2.078c2.044 0 3.421-2.626 3.421-5.737 0-2.365-1.592-4.136-4.489-4.136a5.11 5.11 0 00-5.313 5.168 3.114 3.114 0 00.712 2.117.521.521 0 01.155.6c-.052.2-.171.677-.22.866a.371.371 0 01-.54.269C8.9 16.816 8.2 15.166 8.2 13.309c0-3.065 2.585-6.74 7.712-6.74 4.12 0 6.831 2.981 6.831 6.181 0 4.233-2.353 7.395-5.822 7.395" fill="#fff"/></g></svg>